<svg height="512" viewBox="0 0 58 53" width="512" xmlns="http://www.w3.org/2000/svg"><g id="Page-1" fill="none" fill-rule="evenodd"><g id="020---Eraser" fill-rule="nonzero"><path id="Shape" d="m56.83 24.32-.25.26-14.58-8.58-8.05-14.05.25-.26c1.5642825-1.55978389 4.0957175-1.55978389 5.66 0l16.97 16.98c1.5575332 1.5613099 1.5575332 4.0886901 0 5.65z" fill="#ff5364"/><path id="Shape" d="m56.58 24.58-16.91 17.09-14.67-7.67-7.97-14.97 16.92-17.08z" fill="#fb7b76"/><path id="Shape" d="m39.67 41.67-10.21 10.33h-16.97l-11.32-11.31c-1.55978389-1.5642825-1.55978389-4.0957175 0-5.66l15.86-16z" fill="#3b97d3"/><path id="Shape" d="m14.978 28c-.4048864-.0012903-.7690389-.2466012-.9223515-.621341s-.0655262-.8049468.2223515-1.089659l2.023-2c.2473533-.2811567.6310629-.4005518.9942709-.3093773.3632079.0911745.6450369.3776368.7302771.7422831.0852402.3646462-.0403955.7463581-.325548.9890942l-2.022 2c-.1864223.1843778-.4378021.2881617-.7.289z" fill="#9fc9d3"/><path id="Shape" d="m4 38.858c-.40488638-.0012903-.76903888-.2466012-.92235147-.621341-.15331258-.3747398-.06552626-.8049468.22235147-1.089659l8-7.913c.2478662-.2790877.6305358-.3968971.9924487-.3055372.361913.0913598.6428183.3766793.7285245.7399727.0857062.3632933-.038055.7440796-.3209732.9875645l-8 7.913c-.18642231.1843778-.43780211.2881617-.7.289z" fill="#9fc9d3"/><path id="Shape" d="m47 53h-40c-.55228475 0-1-.4477153-1-1s.44771525-1 1-1h40c.5522847 0 1 .4477153 1 1s-.4477153 1-1 1z" fill="#d1d4d1"/><path id="Shape" d="m53 53h-2c-.5522847 0-1-.4477153-1-1s.4477153-1 1-1h2c.5522847 0 1 .4477153 1 1s-.4477153 1-1 1z" fill="#d1d4d1"/><g fill="#ecf0f1"><circle id="Oval" cx="41" cy="47" r="1"/><circle id="Oval" cx="44" cy="43" r="1"/><circle id="Oval" cx="45" cy="48" r="1"/></g></g></g></svg>